<svg xmlns="http://www.w3.org/2000/svg"
 xmlns:xlink="http://www.w3.org/1999/xlink"
 width="80px" height="80px"  viewBox="0 0 80 80">
<path fill-rule="evenodd"  fill="#6d6d6d"
 d="M40.000122,78.000854 C39.991333,78.000854 39.98242,78.000854 39.97461,78.000854 C39.64856,77.996216 39.340942,77.91431 39.069458,77.77185 C39.069458,77.77185 3.110962,59.806274 3.110962,59.806274 C2.4333496,59.46753 2.0057373,58.77539 2.0057373,58.018677 C2.0057373,58.018677 2.0057373,22.091064 2.0057373,22.091064 C1.9998779,21.796509 2.0583496,21.496582 2.1901855,21.212036 C2.2038574,21.183228 2.218628,21.154419 2.2331543,21.125732 C2.4383545,20.733032 2.7565918,20.436401 3.128662,20.255371 C3.128662,20.255371 21.088745,11.2821045 21.088745,11.2821045 C21.100464,11.275513 21.11316,11.269287 21.125977,11.263428 C21.125977,11.263428 39.10559,2.2797852 39.10559,2.2797852 C39.66809,1.9989014 40.33203,1.9989014 40.89441,2.2797852 C40.89441,2.2797852 76.86951,20.254395 76.86951,20.254395 C77.24243,20.434937 77.56189,20.732544 77.76672,21.12622 C77.781494,21.154419 77.79602,21.183228 77.809814,21.212036 C77.94153,21.496582 78.00012,21.796509 77.994385,22.091064 C77.994385,22.091064 77.994385,58.018677 77.994385,58.018677 C77.994385,58.77539 77.56665,59.46753 76.88904,59.806274 C76.88904,59.806274 40.930542,77.77185 40.930542,77.77185 C40.65918,77.91431 40.351562,77.996216 40.025513,78.000854 C40.01758,78.000854 40.00879,78.000854 40.000122,78.000854 ZM41.999756,41.26953 C41.999756,41.26953 41.999756,72.76965 41.999756,72.76965 C41.999756,72.76965 73.994995,56.784058 73.994995,56.784058 C73.994995,56.784058 73.994995,25.28418 73.994995,25.28418 C73.994995,25.28418 58.911133,32.82019 58.911133,32.82019 C58.899536,32.82666 58.88684,32.833008 58.874146,32.838745 C58.874146,32.838745 41.999756,41.26953 41.999756,41.26953 ZM6.005127,56.784058 C6.005127,56.784058 38.000366,72.76965 38.000366,72.76965 C38.000366,72.76965 38.000366,41.26953 38.000366,41.26953 C38.000366,41.26953 6.005127,25.28418 6.005127,25.28418 C6.005127,25.28418 6.005127,56.784058 6.005127,56.784058 ZM8.47644,22.051147 C8.47644,22.051147 40.000122,37.801025 40.000122,37.801025 C40.000122,37.801025 53.526245,31.042969 53.526245,31.042969 C53.526245,31.042969 22.002808,15.293091 22.002808,15.293091 C22.002808,15.293091 8.47644,22.051147 8.47644,22.051147 ZM26.473755,13.059204 C26.473755,13.059204 57.997314,28.809204 57.997314,28.809204 C57.997314,28.809204 71.52356,22.051147 71.52356,22.051147 C71.52356,22.051147 40.000122,6.3011475 40.000122,6.3011475 C40.000122,6.3011475 26.473755,13.059204 26.473755,13.059204 ZM31.001343,60.01709 C30.6958,60.01709 30.38916,59.947144 30.106934,59.806274 C30.106934,59.806274 12.109619,50.81433 12.109619,50.81433 C11.432007,50.475586 11.004395,49.783447 11.004395,49.026733 C11.004395,49.026733 11.004395,40.034912 11.004395,40.034912 C11.004395,39.342285 11.363647,38.69922 11.952393,38.335327 C12.543091,37.970825 13.278442,37.937622 13.8984375,38.247314 C13.8984375,38.247314 31.895752,47.239258 31.895752,47.239258 C32.573364,47.578003 33.0011,48.27014 33.0011,49.026733 C33.0011,49.026733 33.0011,58.018677 33.0011,58.018677 C33.0011,58.711548 32.641846,59.35437 32.05298,59.718506 C31.73169,59.916992 31.366577,60.01709 31.001343,60.01709 ZM15.003784,47.792114 C15.003784,47.792114 29.001709,54.78589 29.001709,54.78589 C29.001709,54.78589 29.001709,50.261475 29.001709,50.261475 C29.001709,50.261475 15.003784,43.267944 15.003784,43.267944 C15.003784,43.267944 15.003784,47.792114 15.003784,47.792114 Z"/>
</svg>