<svg xmlns="http://www.w3.org/2000/svg"
 xmlns:xlink="http://www.w3.org/1999/xlink"
 width="26px" height="26px"  viewBox="0 0 26 26">
<path fill-rule="evenodd"  fill="#701dbb"
 d="M13.499634,1.9879913 C19.85083,1.9879913 24.999512,7.1366806 24.999512,13.488106 C24.999512,19.839287 19.85083,24.987976 13.499634,24.987976 C7.1483154,24.987976 1.9996338,19.839287 1.9996338,13.488106 C1.9996338,7.1366806 7.1483154,1.9879913 13.499634,1.9879913 ZM13.40686,4.2235146 C18.536743,4.2235146 22.695312,8.38221 22.695312,13.512039 C22.695312,18.641869 18.536743,22.800323 13.40686,22.800323 C8.276978,22.800323 4.118408,18.641869 4.118408,13.512039 C4.118408,8.38221 8.276978,4.2235146 13.40686,4.2235146 ZM16.090942,15.796875 C16.090942,15.796875 12.579712,15.796875 12.579712,15.796875 C12.096069,15.796875 11.704224,15.404991 11.704224,14.921478 C11.704224,14.921478 11.704224,9.59462 11.704224,9.59462 C11.704224,9.111107 12.096069,8.718979 12.579712,8.718979 C13.063232,8.718979 13.4552,9.111107 13.4552,9.59462 C13.4552,9.59462 13.4552,14.045837 13.4552,14.045837 C13.4552,14.045837 16.090942,14.045837 16.090942,14.045837 C16.574463,14.045837 16.966553,14.437965 16.966553,14.921478 C16.966553,15.404991 16.574463,15.796875 16.090942,15.796875 Z"/>
</svg>