<svg xmlns="http://www.w3.org/2000/svg"
 xmlns:xlink="http://www.w3.org/1999/xlink"
 width="78px" height="79px"  viewBox="0 0 78 79">
<path fill-rule="evenodd"  fill="#6d6d6d"
 d="M39.00003,77.00012 C18.046875,77.00012 1.000061,59.953125 1.000061,39.000122 C1.000061,18.04712 18.046875,1.0001221 39.00003,1.0001221 C59.953156,1.0001221 77.0,18.04712 77.0,39.000122 C77.0,59.953125 59.953156,77.00012 39.00003,77.00012 ZM39.00003,5.0 C20.251984,5.0 5.000061,20.25232 5.000061,39.000122 C5.000061,57.74756 20.251984,73.0 39.00003,73.0 C57.748077,73.0 73.0,57.74756 73.0,39.000122 C73.0,20.25232 57.748077,5.0 39.00003,5.0 ZM39.00003,68.0 C23.009827,68.0 10.000061,54.990845 10.000061,39.000122 C10.000061,23.0094 23.009827,10.0 39.00003,10.0 C54.990204,10.0 68.0,23.0094 68.0,39.000122 C68.0,54.990845 54.990204,68.0 39.00003,68.0 ZM39.00003,14.0 C25.214844,14.0 14.0000305,25.214844 14.0000305,39.000122 C14.0000305,52.78528 25.214844,64.00012 39.00003,64.00012 C52.785217,64.00012 64.0,52.78528 64.0,39.000122 C64.0,25.214844 52.785217,14.0 39.00003,14.0 ZM48.0,41.000122 C48.0,41.000122 39.00003,41.000122 39.00003,41.000122 C37.89554,41.000122 37.00003,40.104736 37.00003,39.000122 C37.00003,39.000122 37.00003,30.0 37.00003,30.0 C37.00003,28.89563 37.89554,28.000122 39.00003,28.000122 C40.104523,28.000122 41.00003,28.89563 41.00003,30.0 C41.00003,30.0 41.00003,37.0 41.00003,37.0 C41.00003,37.0 48.0,37.0 48.0,37.0 C49.104492,37.0 50.0,37.895508 50.0,39.000122 C50.0,40.104736 49.104492,41.000122 48.0,41.000122 Z"/>
</svg>