<svg xmlns="http://www.w3.org/2000/svg"
 xmlns:xlink="http://www.w3.org/1999/xlink"
 width="89px" height="54px"  viewBox="0 0 89 54">
<path fill-rule="evenodd"  fill="#6d6d6d"
 d="M12.189697,52.98242 C11.796204,52.98242 11.410522,52.865234 11.083191,52.64502 C3.9241943,47.8396 1.9927368,38.05188 6.776184,30.826904 C9.092346,27.328003 12.620117,24.944336 16.709167,24.115356 C18.142883,23.82544 19.586304,23.737183 20.998657,23.845947 C20.939209,23.588501 20.930481,23.31482 20.979126,23.03833 C22.127625,16.569092 25.710022,10.937134 31.065063,7.1800537 C36.420166,3.4233398 42.907166,1.9909668 49.33362,3.1473389 C58.03546,4.713867 64.97626,10.796509 67.93042,18.737915 C68.20221,18.615845 68.4964,18.554932 68.82562,18.565308 C74.90045,18.815308 80.39105,21.826416 83.88678,26.826904 C86.85547,31.074463 87.99805,35.99951 87.10095,40.694946 C86.21753,45.32483 83.39484,49.53015 79.153076,52.536255 C78.81702,52.77356 78.41766,52.90149 78.00665,52.901978 C78.00665,52.901978 12.19165,52.98242 12.19165,52.98242 C12.19165,52.98242 12.189697,52.98242 12.189697,52.98242 ZM19.815247,27.819458 C19.044739,27.819458 18.26941,27.89685 17.49707,28.053223 C14.450317,28.671265 11.821533,30.447144 10.095581,33.05493 C6.640747,38.272583 7.885559,45.28235 12.81897,48.964478 C12.81897,48.964478 77.354065,48.885864 77.354065,48.885864 C80.467896,46.517456 82.52991,43.360107 83.18353,39.93628 C83.88373,36.26941 82.99841,32.535645 80.62384,29.139526 C77.916016,25.266113 73.70154,22.89563 69.01654,22.597534 C69.30774,24.090698 69.46448,25.629395 69.47327,27.197754 C69.4801,28.306885 68.5918,29.211548 67.49017,29.217773 C67.48633,29.217773 67.48242,29.217773 67.47858,29.217773 C66.381836,29.217773 65.49054,28.326416 65.4837,27.221191 C65.427246,17.311035 58.339355,8.849121 48.632385,7.1014404 C43.253906,6.1346436 37.827698,7.3320312 33.34619,10.476074 C28.864868,13.619507 25.867798,18.332031 24.906433,23.745361 C24.852844,24.04663 24.734985,24.320312 24.570312,24.554077 C25.921326,24.994385 27.219604,25.625122 28.433228,26.440063 C29.349915,27.055542 29.597229,28.30249 28.986511,29.225342 C28.374817,30.147583 27.135925,30.398804 26.220337,29.782349 C24.294739,28.489136 22.079773,27.819458 19.815247,27.819458 ZM58.11438,25.14685 C57.05951,25.14685 56.17804,24.313354 56.12445,23.239868 C55.880005,18.372192 51.718018,14.609497 46.9162,14.858643 C45.83008,14.908203 44.87854,14.062378 44.823914,12.954102 C44.768494,11.845947 45.61487,10.902344 46.715454,10.846558 C53.784912,10.498901 59.753662,15.958496 60.108154,23.036865 C60.163696,24.14502 59.31732,25.088623 58.216614,25.14441 C58.182556,25.145874 58.148438,25.14685 58.11438,25.14685 Z"/>
</svg>