<svg xmlns="http://www.w3.org/2000/svg"
 xmlns:xlink="http://www.w3.org/1999/xlink"
 width="23px" height="28px"  viewBox="0 0 23 28">
<path fill-rule="evenodd"  fill="#7d7d7d"
 d="M20.616821,26.999939 C20.616821,26.999939 2.4570923,26.999939 2.4570923,26.999939 C2.0856323,26.999939 1.7845459,26.693634 1.7845459,26.315765 C1.7845459,26.315765 1.7845459,1.6841736 1.7845459,1.6841736 C1.7845459,1.3063049 2.0856323,1.0 2.4570923,1.0 C2.4570923,1.0 14.563599,1.0 14.563599,1.0 C14.56427,1.0 14.56488,1.0 14.565552,1.0 C14.565735,1.0 14.565735,1.0 14.565735,1.0 C14.748657,1.0004883 14.91449,1.0756683 15.035522,1.1965485 C15.035522,1.1965485 15.035522,1.1965485 15.035522,1.1965485 C15.035706,1.1970367 15.035889,1.1972809 15.036194,1.1972809 C15.036194,1.1972809 15.036194,1.197525 15.036194,1.197525 C15.036621,1.1977539 15.036987,1.197998 15.036987,1.197998 C15.03717,1.1984863 15.0373535,1.1987305 15.037659,1.1989746 C15.037659,1.1989746 15.037659,1.1989746 15.037659,1.1989746 C15.037842,1.1994476 15.037903,1.1999359 15.038513,1.1996918 C15.038696,1.1999359 15.03894,1.20018 15.039124,1.2004242 C15.039124,1.2004242 21.092407,7.358444 21.092407,7.358444 C21.092712,7.358444 21.09259,7.358917 21.093384,7.3591614 C21.093567,7.3594055 21.09375,7.3596497 21.093933,7.359894 C21.093933,7.359894 21.093994,7.359894 21.093994,7.359894 C21.094177,7.360138 21.09436,7.360367 21.094666,7.360611 C21.094666,7.360611 21.095215,7.360855 21.095398,7.3613434 C21.095398,7.3613434 21.095459,7.3613434 21.095459,7.3613434 C21.095642,7.3618164 21.095825,7.3618164 21.096252,7.3620605 C21.096252,7.3620605 21.096252,7.3620605 21.096252,7.3620605 C21.21521,7.4851227 21.28894,7.6538696 21.289429,7.8400116 C21.289429,7.8397827 21.289429,7.8405 21.289429,7.8412323 C21.289429,7.841461 21.289429,7.8417053 21.289429,7.8421936 C21.289429,7.8421936 21.289429,26.315765 21.289429,26.315765 C21.289429,26.693634 20.988342,26.999939 20.616821,26.999939 ZM3.1296997,25.631592 C3.1296997,25.631592 19.944275,25.631592 19.944275,25.631592 C19.944275,25.631592 19.944275,8.526367 19.944275,8.526367 C19.944275,8.526367 14.563599,8.526367 14.563599,8.526367 C14.192139,8.526367 13.891052,8.220062 13.891052,7.8421936 C13.891052,7.8421936 13.891052,2.3685913 13.891052,2.3685913 C13.891052,2.3685913 3.1296997,2.3685913 3.1296997,2.3685913 C3.1296997,2.3685913 3.1296997,25.631592 3.1296997,25.631592 ZM15.236206,7.15802 C15.236206,7.15802 18.993042,7.15802 18.993042,7.15802 C18.993042,7.15802 15.236206,3.33609 15.236206,3.33609 C15.236206,3.33609 15.236206,7.15802 15.236206,7.15802 ZM17.59021,21.868423 C17.59021,21.868423 5.4837036,21.868423 5.4837036,21.868423 C5.1123047,21.868423 4.811157,21.562119 4.811157,21.18425 C4.811157,20.806381 5.1123047,20.500076 5.4837036,20.500076 C5.4837036,20.500076 17.59021,20.500076 17.59021,20.500076 C17.961731,20.500076 18.262817,20.806381 18.262817,21.18425 C18.262817,21.562119 17.961731,21.868423 17.59021,21.868423 ZM17.59021,18.789658 C17.59021,18.789658 5.4837036,18.789658 5.4837036,18.789658 C5.1123047,18.789658 4.811157,18.483109 4.811157,18.10524 C4.811157,17.727371 5.1123047,17.421066 5.4837036,17.421066 C5.4837036,17.421066 17.59021,17.421066 17.59021,17.421066 C17.961731,17.421066 18.262817,17.727371 18.262817,18.10524 C18.262817,18.483109 17.961731,18.789658 17.59021,18.789658 ZM11.536987,15.710648 C11.536987,15.710648 5.4837036,15.710648 5.4837036,15.710648 C5.1123047,15.710648 4.811157,15.404327 4.811157,15.026474 C4.811157,14.648605 5.1123047,14.342056 5.4837036,14.342056 C5.4837036,14.342056 11.536987,14.342056 11.536987,14.342056 C11.908386,14.342056 12.209595,14.648605 12.209595,15.026474 C12.209595,15.404327 11.908386,15.710648 11.536987,15.710648 ZM11.064087,8.526367 C11.064087,8.526367 5.4837036,8.526367 5.4837036,8.526367 C5.1123047,8.526367 4.811157,8.220062 4.811157,7.8421936 C4.811157,7.8421936 4.811157,4.7631836 4.811157,4.7631836 C4.811157,4.385315 5.1123047,4.07901 5.4837036,4.07901 C5.4837036,4.07901 11.064087,4.07901 11.064087,4.07901 C11.435486,4.07901 11.736633,4.385315 11.736633,4.7631836 C11.736633,4.7631836 11.736633,7.8421936 11.736633,7.8421936 C11.736633,8.220062 11.435486,8.526367 11.064087,8.526367 ZM6.156311,7.15802 C6.156311,7.15802 10.3914795,7.15802 10.3914795,7.15802 C10.3914795,7.15802 10.3914795,5.447357 10.3914795,5.447357 C10.3914795,5.447357 6.156311,5.447357 6.156311,5.447357 C6.156311,5.447357 6.156311,7.15802 6.156311,7.15802 Z"/>
</svg>