<svg xmlns="http://www.w3.org/2000/svg"
 xmlns:xlink="http://www.w3.org/1999/xlink"
 width="10px" height="14px"  viewBox="0 0 10 14">
<path fill-rule="evenodd"  fill="#ffffff"
 d="M5.9884033,12.993408 C5.9884033,12.993408 3.3252563,12.993408 3.3252563,12.993408 C3.3252563,12.993408 3.3252563,6.9987793 3.3252563,6.9987793 C3.3252563,6.9987793 1.9945679,6.9987793 1.9945679,6.9987793 C1.9945679,6.9987793 1.9945679,4.9331055 1.9945679,4.9331055 C1.9945679,4.9331055 3.3252563,4.9331055 3.3252563,4.9331055 C3.3252563,4.9331055 3.3252563,3.692871 3.3252563,3.692871 C3.3252563,2.0075684 4.076416,1.0053711 6.2110596,1.0053711 C6.2110596,1.0053711 7.9884644,1.0053711 7.9884644,1.0053711 C7.9884644,1.0053711 7.9884644,3.0715332 7.9884644,3.0715332 C7.9884644,3.0715332 6.8776855,3.0715332 6.8776855,3.0715332 C6.0463867,3.0715332 5.9918823,3.3601074 5.9918823,3.8989258 C5.9918823,3.8989258 5.9884033,4.9331055 5.9884033,4.9331055 C5.9884033,4.9331055 8.00116,4.9331055 8.00116,4.9331055 C8.00116,4.9331055 7.765442,6.9987793 7.765442,6.9987793 C7.765442,6.9987793 5.9884033,6.9987793 5.9884033,6.9987793 C5.9884033,6.9987793 5.9884033,12.993408 5.9884033,12.993408 C5.9884033,12.993408 5.9884033,12.993408 5.9884033,12.993408 Z"/>
</svg>