<svg xmlns="http://www.w3.org/2000/svg"
 xmlns:xlink="http://www.w3.org/1999/xlink"
 width="53px" height="54px"  viewBox="0 0 53 54">
<path fill-rule="evenodd"  fill="#8038c2"
 d="M46.49469,38.070023 C51.727478,29.597908 51.063232,18.764076 44.783478,10.954132 C40.20865,5.263672 33.352783,1.999958 25.973816,1.999958 C20.579895,1.999958 15.284912,3.826912 11.064362,7.1438103 C6.0464478,11.087341 2.8821106,16.727036 2.1540833,23.024063 C1.4266357,29.320854 3.2226257,35.520454 7.2113647,40.480087 C11.714325,46.08207 18.770386,49.426285 26.085876,49.425804 C28.80661,49.425804 31.469482,48.975655 34.009735,48.08744 C34.009735,48.08744 44.444977,51.837807 44.444977,51.837807 C44.742645,51.945633 45.055206,52.000023 45.37393,52.000023 C45.99469,52.000023 46.601837,51.78704 47.082733,51.40071 C47.81848,50.81082 48.192566,49.868217 48.059082,48.941322 C48.059082,48.941322 46.49469,38.070023 46.49469,38.070023 ZM41.071747,38.458763 C41.071747,38.458763 42.052063,45.271942 42.052063,45.271942 C42.052063,45.271942 35.18759,42.804337 35.18759,42.804337 C34.978973,42.730118 34.763733,42.681282 34.545593,42.6588 C34.0018,42.526802 33.423645,42.56572 32.893158,42.774117 C30.72528,43.631622 28.432068,44.066544 26.076935,44.066544 C26.076935,44.066544 26.076355,44.066544 26.076263,44.066544 C20.407593,44.066307 14.942505,41.478302 11.457214,37.143852 C8.370178,33.30403 6.980133,28.505653 7.543396,23.632565 C8.106598,18.75924 10.555786,14.394085 14.439636,11.341667 C17.753021,8.7381935 21.742676,7.362114 25.977142,7.362114 C31.690552,7.362114 36.997467,9.887505 40.537445,14.290615 C45.621338,20.614235 45.95746,29.350586 41.37329,36.030075 C40.883453,36.744225 40.774994,37.655167 41.071747,38.458763 ZM22.663574,11.139801 C22.283234,11.139801 21.913391,11.217407 21.566498,11.369953 C16.756989,13.472992 13.065674,17.51081 11.43927,22.448444 C11.215057,23.12923 11.27243,23.855705 11.600952,24.494186 C11.929474,25.132668 12.489899,25.606262 13.175232,25.826744 C13.448517,25.915474 13.732147,25.960442 14.018555,25.960442 C15.195557,25.960442 16.231873,25.216553 16.597168,24.108585 C17.7471,20.617863 20.358063,17.762238 23.761322,16.274223 C25.128754,15.675636 25.748749,14.08923 25.144562,12.739021 C24.71106,11.767403 23.737305,11.139801 22.663574,11.139801 Z"/>
</svg>