<svg xmlns="http://www.w3.org/2000/svg"
 xmlns:xlink="http://www.w3.org/1999/xlink"
 width="17px" height="13px"  viewBox="0 0 17 13">
<path fill-rule="evenodd"  fill="#ffffff"
 d="M11.033081,5.921875 C11.033081,5.921875 15.006714,2.6364746 15.006714,2.6364746 C15.006714,2.6364746 15.006714,10.952148 15.006714,10.952148 C15.006714,10.952148 11.033081,5.921875 11.033081,5.921875 ZM2.046753,1.9968262 C2.046753,1.9968262 14.974365,1.9968262 14.974365,1.9968262 C14.974365,1.9968262 8.51062,7.3415527 8.51062,7.3415527 C8.51062,7.3415527 2.046753,1.9968262 2.046753,1.9968262 ZM1.9974365,10.973877 C1.9974365,10.973877 2.0084229,2.6311035 2.0084229,2.6311035 C2.0084229,2.6311035 5.988037,5.921875 5.988037,5.921875 C5.988037,5.921875 1.9974365,10.973877 1.9974365,10.973877 ZM8.509033,8.006592 C8.509033,8.006592 8.509033,8.009033 8.509033,8.009033 C8.509033,8.009033 8.51062,8.0078125 8.51062,8.0078125 C8.51062,8.0078125 8.512207,8.009033 8.512207,8.009033 C8.512207,8.009033 8.512207,8.006592 8.512207,8.006592 C8.512207,8.006592 10.714722,6.1853027 10.714722,6.1853027 C10.714722,6.1853027 14.52417,11.007568 14.52417,11.007568 C14.52417,11.007568 2.4971924,11.007568 2.4971924,11.007568 C2.4971924,11.007568 6.3063965,6.1853027 6.3063965,6.1853027 C6.3063965,6.1853027 8.509033,8.006592 8.509033,8.006592 Z"/>
</svg>