<svg xmlns="http://www.w3.org/2000/svg"
 xmlns:xlink="http://www.w3.org/1999/xlink"
 width="15px" height="20px"  viewBox="0 0 15 20">
<path fill-rule="evenodd"  fill="#c7c7c7"
 d="M4.265381,7.353531 C4.265381,5.4755707 5.7145386,3.9532318 7.502075,3.9532318 C9.289612,3.9532318 10.73877,5.4755707 10.73877,7.353531 C10.73877,9.231499 9.289612,10.754082 7.502075,10.754082 C5.7145386,10.754082 4.265381,9.231499 4.265381,7.353531 ZM1.9996948,7.7785416 C1.9996948,9.201035 3.6414185,12.199303 3.6414185,12.199303 C3.6414185,12.199303 7.502075,18.999908 7.502075,18.999908 C7.502075,18.999908 11.140808,12.199303 11.140808,12.199303 C11.140808,12.199303 13.004395,9.179764 13.004395,7.7785416 C13.004395,4.585907 10.540894,1.9979057 7.502075,1.9979057 C4.4630737,1.9979057 1.9996948,4.585907 1.9996948,7.7785416 Z"/>
</svg>