<svg xmlns="http://www.w3.org/2000/svg"
 xmlns:xlink="http://www.w3.org/1999/xlink"
 width="19px" height="29px"  viewBox="0 0 19 29">
<path fill-rule="evenodd"  fill="#7d7d7d"
 d="M9.756287,27.315765 C9.756287,27.315765 9.7561035,27.315765 9.7561035,27.315765 C9.507507,27.315765 9.279175,27.176758 9.162415,26.954346 C9.162415,26.954346 2.2165527,13.720352 2.2165527,13.720352 C2.20813,13.704407 2.2003174,13.687958 2.1932983,13.67128 C1.7444458,12.621567 1.5170898,11.504654 1.5170898,10.351959 C1.5170898,5.745529 5.213135,1.9978333 9.756287,1.9978333 C14.299255,1.9978333 17.995361,5.745529 17.995361,10.351959 C17.995361,11.534393 17.756287,12.677902 17.284912,13.750336 C17.278442,13.764832 17.271484,13.779343 17.264221,13.7933655 C17.264221,13.7933655 10.3498535,26.95459 10.3498535,26.95459 C10.233093,27.176758 10.004639,27.315765 9.756287,27.315765 ZM3.4171143,13.104355 C3.4171143,13.104355 9.756531,25.182755 9.756531,25.182755 C9.756531,25.182755 16.065674,13.173737 16.065674,13.173737 C16.453491,12.283356 16.650208,11.333984 16.650208,10.351959 C16.650208,6.497635 13.557556,3.3618164 9.756287,3.3618164 C5.954895,3.3618164 2.8622437,6.497635 2.8622437,10.351959 C2.8622437,11.308105 3.0489502,12.234039 3.4171143,13.104355 ZM9.756287,14.41153 C7.3828735,14.41153 5.451782,12.453552 5.451782,10.046631 C5.451782,7.6399384 7.3828735,5.681946 9.756287,5.681946 C12.130005,5.681946 14.061035,7.6399384 14.061035,10.046631 C14.061035,12.453552 12.130005,14.41153 9.756287,14.41153 ZM9.756287,7.045944 C8.124512,7.045944 6.796936,8.392044 6.796936,10.046631 C6.796936,11.701202 8.124512,13.047546 9.756287,13.047546 C11.388123,13.047546 12.715881,11.701202 12.715881,10.046631 C12.715881,8.392044 11.388123,7.045944 9.756287,7.045944 Z"/>
</svg>