<svg xmlns="http://www.w3.org/2000/svg"
 xmlns:xlink="http://www.w3.org/1999/xlink"
 width="28px" height="28px"  viewBox="0 0 28 28">
<path fill-rule="evenodd"  fill="#7d7d7d"
 d="M13.785187,26.999939 C6.7388306,26.999939 1.0061035,21.16829 1.0061035,13.9999695 C1.0061035,6.831894 6.7388306,1.0 13.785187,1.0 C20.831573,1.0 26.5643,6.831894 26.5643,13.9999695 C26.5643,21.16829 20.831573,26.999939 13.785187,26.999939 ZM19.156952,21.015259 C18.283905,23.024017 17.131836,24.440216 16.145508,25.382355 C18.178314,24.946701 20.014038,23.959854 21.493805,22.583298 C20.935516,22.131454 20.13794,21.551712 19.156952,21.015259 ZM6.0463867,22.555252 C7.5312195,23.94632 9.378235,24.943802 11.424896,25.382355 C10.416382,24.418701 9.234283,22.959229 8.354584,20.87819 C7.5921936,21.315277 6.821228,21.867691 6.0463867,22.555252 ZM14.457764,19.507187 C14.457764,19.507187 14.457764,25.05307 14.457764,25.05307 C15.423676,24.299042 16.900482,22.842941 17.942078,20.423203 C16.907043,19.979568 15.731323,19.629028 14.457764,19.507187 ZM9.565308,20.274033 C10.609467,22.783463 12.127045,24.283813 13.11261,25.05307 C13.11261,25.05307 13.11261,19.468018 13.11261,19.468018 C11.980774,19.511536 10.789917,19.752563 9.565308,20.274033 ZM19.631378,19.7753 C20.82483,20.405304 21.782135,21.094803 22.42517,21.610458 C24.027435,19.73056 25.048218,17.323883 25.199554,14.684387 C25.199554,14.684387 20.500366,14.684387 20.500366,14.684387 C20.43808,16.653 20.109558,18.34047 19.631378,19.7753 ZM2.3708496,14.684387 C2.5210876,17.305023 3.5279236,19.695755 5.1104126,21.56961 C6.037323,20.740387 6.96167,20.087402 7.8760986,19.582611 C7.4322815,18.190094 7.129425,16.565735 7.070038,14.684387 C7.070038,14.684387 2.3708496,14.684387 2.3708496,14.684387 ZM14.457764,18.167374 C15.899017,18.300812 17.232178,18.694397 18.40326,19.190964 C18.812988,17.916183 19.095245,16.422852 19.154358,14.684387 C19.154358,14.684387 14.457764,14.684387 14.457764,14.684387 C14.457764,14.684387 14.457764,18.167374 14.457764,18.167374 ZM8.416016,14.684387 C8.472015,16.331467 8.728485,17.759048 9.10376,18.988617 C10.485687,18.412262 11.832581,18.155762 13.11261,18.122162 C13.11261,18.122162 13.11261,14.684387 13.11261,14.684387 C13.11261,14.684387 8.416016,14.684387 8.416016,14.684387 ZM20.500366,13.315796 C20.500366,13.315796 25.199554,13.315796 25.199554,13.315796 C25.049316,10.69516 24.042389,8.304428 22.459991,6.4305725 C21.53305,7.259796 20.608734,7.912781 19.694275,8.417328 C20.138123,9.810089 20.440948,11.434448 20.500366,13.315796 ZM14.457764,13.315796 C14.457764,13.315796 19.154358,13.315796 19.154358,13.315796 C19.098389,11.668716 18.841919,10.24115 18.466644,9.011566 C17.084717,9.587921 15.737793,9.844421 14.457764,9.878021 C14.457764,9.878021 14.457764,13.315796 14.457764,13.315796 ZM8.416016,13.315796 C8.416016,13.315796 13.11261,13.315796 13.11261,13.315796 C13.11261,13.315796 13.11261,9.832581 13.11261,9.832581 C11.671387,9.699127 10.338226,9.305786 9.167145,8.809219 C8.757385,10.0837555 8.475159,11.577332 8.416016,13.315796 ZM2.3708496,13.315796 C2.3708496,13.315796 7.070038,13.315796 7.070038,13.315796 C7.1322937,11.347183 7.460846,9.659714 7.939026,8.224899 C6.745575,7.594879 5.788269,6.9053802 5.145233,6.3894806 C3.5428772,8.269379 2.5221863,10.6763 2.3708496,13.315796 ZM14.457764,2.947113 C14.457764,2.947113 14.457764,8.532166 14.457764,8.532166 C15.5896,8.488647 16.780487,8.24762 18.005066,7.7261505 C16.960907,5.2167206 15.443359,3.716385 14.457764,2.947113 ZM9.628326,7.5769806 C10.66333,8.020615 11.83905,8.370911 13.11261,8.492996 C13.11261,8.492996 13.11261,2.947113 13.11261,2.947113 C12.146698,3.7009125 10.669891,5.1569977 9.628326,7.5769806 ZM16.145508,2.6175995 C17.153992,3.581482 18.33609,5.0407257 19.21582,7.121994 C19.97818,6.684662 20.749146,6.132248 21.524017,5.444931 C20.039062,4.0538635 18.19217,3.0563812 16.145508,2.6175995 ZM6.076599,5.4166565 C6.6348877,5.8687286 7.4324646,6.448471 8.413422,6.98468 C9.286499,4.976166 10.438568,3.559967 11.424896,2.6175995 C9.391998,3.053482 7.556366,4.040329 6.076599,5.4166565 Z"/>
</svg>