<svg xmlns="http://www.w3.org/2000/svg"
 xmlns:xlink="http://www.w3.org/1999/xlink"
 width="28px" height="26px"  viewBox="0 0 28 26">
<path fill-rule="evenodd"  fill="#701dbb"
 d="M7.9661255,24.285156 C7.892761,24.285156 7.8186035,24.273071 7.746582,24.247925 C7.480652,24.154861 7.300293,23.90416 7.2943726,23.619614 C7.2943726,23.619614 7.173462,17.763306 7.173462,17.763306 C7.173462,17.763306 1.494873,14.890991 1.494873,14.890991 C1.4745483,14.880844 1.4544678,14.869965 1.4353638,14.857864 C1.4121704,14.843369 1.3901978,14.827652 1.3693848,14.810974 C1.2597656,14.722488 1.1768799,14.599197 1.138977,14.453415 C1.1324463,14.428513 1.1273193,14.403366 1.1237183,14.377747 C1.0993652,14.209244 1.1387329,14.044357 1.2246094,13.910187 C1.2249756,13.910187 1.2246094,13.910187 1.2252808,13.908981 C1.2254639,13.908981 1.2254639,13.908737 1.225647,13.908493 C1.225647,13.908493 1.2258301,13.908493 1.2258301,13.908493 C1.2310791,13.900269 1.2362671,13.892288 1.2418823,13.884552 C1.2421875,13.883835 1.2423706,13.883591 1.2427368,13.883591 C1.3080444,13.791 1.3964844,13.715088 1.5013428,13.665039 C1.5013428,13.665039 25.66742,1.4425659 25.66742,1.4425659 C25.707153,1.421524 25.748413,1.4043732 25.791138,1.3917999 C25.82788,1.3806763 25.86493,1.3729401 25.902344,1.3685913 C25.973877,1.3596344 26.049072,1.3627777 26.122498,1.3787384 C26.19635,1.3946991 26.268188,1.4234619 26.334839,1.4650421 C26.334839,1.4652863 26.335205,1.4652863 26.335205,1.4652863 C26.403442,1.507843 26.462158,1.5615082 26.509705,1.6229095 C26.55664,1.6828766 26.592102,1.7493591 26.616028,1.8192139 C26.630188,1.8598328 26.64032,1.9016571 26.646606,1.9437256 C26.658081,2.022049 26.656433,2.1032867 26.63971,2.183548 C26.629517,2.231903 26.614136,2.27977 26.593445,2.3256989 C26.593445,2.3256989 17.533203,23.710266 17.533203,23.710266 C17.503967,23.783035 17.462952,23.849762 17.412415,23.907532 C17.412048,23.907532 17.412048,23.907776 17.412048,23.90802 C17.412048,23.90802 17.411804,23.90802 17.411804,23.908264 C17.40387,23.91745 17.39569,23.926147 17.387146,23.93486 C17.387146,23.93486 17.387146,23.93486 17.387146,23.93486 C17.38684,23.935104 17.38684,23.935104 17.38684,23.935104 C17.386475,23.935333 17.385803,23.936066 17.38617,23.935822 C17.27063,24.05307 17.11322,24.12851 16.937561,24.135757 C16.93103,24.136246 16.924194,24.136246 16.917603,24.136475 C16.917603,24.136475 16.917236,24.136475 16.917236,24.136475 C16.914001,24.136963 16.911987,24.136475 16.909119,24.136475 C16.765015,24.136475 16.631104,24.090546 16.521545,24.011734 C16.521545,24.011734 11.401367,20.441238 11.401367,20.441238 C11.401367,20.441238 8.485901,24.036636 8.485901,24.036636 C8.355835,24.196915 8.163635,24.285156 7.9661255,24.285156 ZM12.267883,19.394196 C12.267883,19.394196 16.204834,22.139816 16.204834,22.139816 C16.204834,22.139816 16.028015,14.924347 16.028015,14.924347 C16.028015,14.924347 12.267883,19.394196 12.267883,19.394196 ZM8.515564,17.651611 C8.515564,17.651611 8.600281,21.752045 8.600281,21.752045 C8.600281,21.752045 10.752991,19.097305 10.752991,19.097305 C10.754944,19.094894 10.756958,19.092468 10.758911,19.090057 C10.758911,19.090057 10.759094,19.089813 10.759277,19.08957 C10.759277,19.08957 10.759338,19.08957 10.759338,19.08934 C10.760559,19.087875 10.761841,19.086426 10.763123,19.084976 C10.763123,19.084976 20.38861,7.6431274 20.38861,7.6431274 C20.38861,7.6431274 14.966736,12.2135315 14.966736,12.2135315 C14.95697,12.222488 14.946594,12.230942 14.936096,12.23941 C14.936096,12.23941 8.515564,17.651611 8.515564,17.651611 ZM17.334656,13.371307 C17.334656,13.371307 17.504944,20.32544 17.504944,20.32544 C17.504944,20.32544 23.613586,5.9078064 23.613586,5.9078064 C23.613586,5.9078064 17.334656,13.371307 17.334656,13.371307 ZM3.8412476,14.557602 C3.8412476,14.557602 7.744385,16.5318 7.744385,16.5318 C7.744385,16.5318 12.0581665,12.895538 12.0581665,12.895538 C12.0581665,12.895538 3.8412476,14.557602 3.8412476,14.557602 ZM21.103333,5.2710114 C21.103333,5.2710114 6.5774536,12.617752 6.5774536,12.617752 C6.5774536,12.617752 14.222412,11.071243 14.222412,11.071243 C14.222412,11.071243 21.103333,5.2710114 21.103333,5.2710114 Z"/>
</svg>