<svg xmlns="http://www.w3.org/2000/svg"
 xmlns:xlink="http://www.w3.org/1999/xlink"
 width="29px" height="25px"  viewBox="0 0 29 25">
<path fill-rule="evenodd"  fill="#ffffff"
 d="M27.996368,10.299805 C27.080994,10.456543 25.75357,10.293701 25.050323,10.000244 C26.511902,9.878418 27.501373,9.211426 27.882568,8.3063965 C27.355957,8.631836 25.719757,8.986816 24.817688,8.648682 C24.772614,8.435547 24.723846,8.23291 24.674133,8.049561 C23.986969,5.510742 21.630157,3.465088 19.162506,3.7121582 C19.361298,3.6308594 19.563263,3.5559082 19.767273,3.4873047 C20.037415,3.3891602 21.632385,3.128418 21.381622,2.5637207 C21.169159,2.0656738 19.220886,2.9379883 18.854279,3.0524902 C19.338593,2.8708496 20.139404,2.5563965 20.224762,1.996582 C19.483093,2.0986328 18.754883,2.4511719 18.192444,2.963623 C18.395874,2.7441406 18.549774,2.4768066 18.582306,2.1879883 C16.603363,3.4592285 15.447235,6.018799 14.512451,8.503662 C13.778168,7.788086 13.125549,7.2248535 12.542389,6.9108887 C10.904358,6.029541 8.945038,5.10791 5.870575,3.9606934 C5.7761536,4.982666 6.373535,6.3427734 8.093597,7.2460938 C7.7212524,7.195801 7.0396423,7.308838 6.4954834,7.438965 C6.7170105,8.611084 7.4422607,9.576172 9.406952,10.041748 C8.509338,10.101318 8.044617,10.307617 7.624634,10.749023 C8.033539,11.563721 9.032227,12.522217 10.825836,12.325439 C8.829712,13.189941 10.011902,14.79126 11.636444,14.552002 C8.866852,17.428467 4.498993,17.215088 1.9908447,14.811523 C8.538513,23.777344 22.77298,20.113281 24.89328,11.477295 C26.484009,11.490234 27.416931,10.924561 27.996368,10.299805 Z"/>
</svg>