<svg xmlns="http://www.w3.org/2000/svg"
 xmlns:xlink="http://www.w3.org/1999/xlink"
 width="16px" height="14px"  viewBox="0 0 16 14">
<path fill-rule="evenodd"  fill="#ffffff"
 d="M14.998169,6.1499023 C14.540466,6.2282715 13.87677,6.1467285 13.5251465,6.0 C14.25592,5.939209 14.750671,5.605713 14.941284,5.153076 C14.6779785,5.315918 13.859863,5.493408 13.408813,5.3242188 C13.3862915,5.2177734 13.361877,5.116455 13.337036,5.0249023 C12.993469,3.755371 11.815063,2.7324219 10.581238,2.855957 C10.680664,2.8154297 10.781616,2.777832 10.883606,2.7436523 C11.018677,2.69458 11.816162,2.564209 11.690796,2.2817383 C11.584534,2.0327148 10.610413,2.4689941 10.427124,2.526123 C10.6692505,2.4353027 11.069702,2.2783203 11.112366,1.998291 C10.741516,2.0493164 10.377441,2.225586 10.096191,2.4816895 C10.197937,2.3720703 10.274902,2.2382812 10.291138,2.0939941 C9.301697,2.7294922 8.723572,4.0095215 8.256226,5.251709 C7.889038,4.894043 7.562744,4.6123047 7.271179,4.4555664 C6.4521484,4.0146484 5.472473,3.553955 3.9352417,2.9802246 C3.8880615,3.491455 4.1867676,4.1713867 5.046753,4.623047 C4.8605957,4.5979004 4.5197754,4.654541 4.2477417,4.7194824 C4.3585205,5.30542 4.7211304,5.788086 5.703491,6.020752 C5.2546387,6.050537 5.022278,6.1538086 4.812317,6.3745117 C5.0167236,6.7819824 5.5161133,7.2609863 6.412903,7.1625977 C5.414856,7.5949707 6.0059204,8.395508 6.8182373,8.275879 C5.4334106,9.714111 3.2494507,9.607422 1.9954224,8.405762 C5.269226,12.888672 12.386475,11.056641 13.446594,6.7385254 C14.242004,6.745117 14.708435,6.4624023 14.998169,6.1499023 Z"/>
</svg>