<svg xmlns="http://www.w3.org/2000/svg"
 xmlns:xlink="http://www.w3.org/1999/xlink"
 width="58px" height="60px"  viewBox="0 0 58 60">
<path fill-rule="evenodd"  fill="#ffffff"
 d="M51.129517,42.3985 C56.90741,32.909576 56.17395,20.775818 49.23999,12.028595 C44.18872,5.6553955 36.618713,2.0000305 28.47107,2.0000305 C22.515259,2.0000305 16.668701,4.0462646 12.008545,7.7611084 C6.4679565,12.1779785 2.973999,18.494354 2.170227,25.546875 C1.3668823,32.599396 3.3499756,39.542877 7.7541504,45.097717 C12.726257,51.37201 20.517212,55.117554 28.594788,55.117065 C31.598938,55.117065 34.539246,54.612793 37.344055,53.61792 C37.344055,53.61792 48.866272,57.81848 48.866272,57.81848 C49.194946,57.939087 49.5401,58.0 49.89209,58.0 C50.577515,58.0 51.247864,57.761414 51.77881,57.32892 C52.591248,56.66797 53.004333,55.612427 52.856873,54.57434 C52.856873,54.57434 51.129517,42.3985 51.129517,42.3985 ZM45.141724,42.83368 C45.141724,42.83368 46.224182,50.464478 46.224182,50.464478 C46.224182,50.464478 38.644592,47.700714 38.644592,47.700714 C38.414246,47.617798 38.176575,47.562897 37.93567,47.53778 C37.335266,47.390045 36.69696,47.433563 36.111145,47.66687 C33.71747,48.627625 31.185425,49.114502 28.5849,49.114502 C28.5849,49.114502 28.58429,49.114502 28.584167,49.114502 C22.325012,49.114258 16.290771,46.21585 12.442383,41.361145 C9.03363,37.060516 7.4989014,31.686523 8.12085,26.228638 C8.742615,20.770264 11.44696,15.881226 15.735413,12.462524 C19.39392,9.546722 23.799133,8.005524 28.474792,8.005524 C34.783264,8.005524 40.643005,10.833832 44.551697,15.765411 C50.165283,22.8479 50.536316,32.632507 45.47467,40.113678 C44.933838,40.913635 44.814026,41.933624 45.141724,42.83368 ZM24.815979,12.236481 C24.396057,12.236481 23.98761,12.323517 23.604614,12.494202 C18.29419,14.849884 14.218323,19.372162 12.422485,24.9021 C12.174988,25.664856 12.238281,26.478363 12.601074,27.193481 C12.963806,27.9086 13.582581,28.438995 14.339233,28.685852 C14.640991,28.785217 14.954285,28.835724 15.270447,28.835724 C16.570068,28.835724 17.714355,28.00241 18.117737,26.761719 C19.38739,22.851776 22.270325,19.653809 26.028076,17.987152 C27.537964,17.316772 28.222656,15.539856 27.55542,14.027679 C27.076782,12.939514 26.001587,12.236481 24.815979,12.236481 Z"/>
</svg>