<svg xmlns="http://www.w3.org/2000/svg"
 xmlns:xlink="http://www.w3.org/1999/xlink"
 width="12px" height="12px"  viewBox="0 0 12 12">
<path fill-rule="evenodd"  fill="#ffffff"
 d="M1.996582,5.784668 C3.1203613,5.784668 4.1763916,6.2226562 4.970215,7.017578 C5.7651367,7.8134766 6.202881,8.872803 6.202881,10.000977 C6.202881,10.000977 7.934082,10.000977 7.934082,10.000977 C7.934082,6.7248535 5.270508,4.0595703 1.996582,4.0595703 C1.996582,4.0595703 1.996582,5.784668 1.996582,5.784668 ZM1.9991455,2.7263184 C6.003418,2.7263184 9.261108,5.9904785 9.261108,10.002686 C9.261108,10.002686 10.99231,10.002686 10.99231,10.002686 C10.99231,5.0393066 6.95813,1.0009766 1.9991455,1.0009766 C1.9991455,1.0009766 1.9991455,2.7263184 1.9991455,2.7263184 ZM4.3935547,8.797607 C4.3935547,9.45752 3.8564453,9.992676 3.194458,9.992676 C2.5322266,9.992676 1.9953613,9.45752 1.9953613,8.797607 C1.9953613,8.137451 2.5322266,7.602539 3.194458,7.602539 C3.8564453,7.602539 4.3935547,8.137451 4.3935547,8.797607 Z"/>
</svg>